# xmcd
#
# Track frame offsets:
#	150
#	22863
#	40899
#	56989
#	74189
#	88515
#	105570
#	123687
#	142766
#	160523
#	178048
#	195780
#	220762
#	235689
#	250053
#	268242
#	285840
#	302750
#
# Disc length: 4278 seconds
#
# Revision: 1
# Processed by: cddbd v1.5.2PL0 Copyright (c) Steve Scherf et al.
# Submitted via: audiograbber 1.83.01
#
DISCID=f410b412
DTITLE=100% HITS - Rap Hits Vol.1
DYEAR=1998
DGENRE=Rap
TTITLE0=Puff Daddy and Faith Evans - I'll be missing you
TTITLE1=2Pac feat. Dr. Dre - California love
TTITLE2=Will Smith - Men in black
TTITLE3=Nana - Lonely
TTITLE4=Sweetbox - Everything's gonna be alright
TTITLE5=The Rapsody feat. Warren and Sissel - Prince Igor
TTITLE6=Coolio feat. L.V. - Gangsta's paradise
TTITLE7=Ginuwine - When doves cry
TTITLE8=Black Attack - Bang bang
TTITLE9=R'N'G - Rhythm of my heart (Tik tak)
TTITLE10=G'S Incorporated - Stairway to heaven
TTITLE11=Down Low - Moonlight (moon mix)
TTITLE12=Xzibit - Paparazzi
TTITLE13=Poetry 'n Motion - Romeo and Juliet
TTITLE14=Warren G feat. Adina Howard - What's love got to do with it
TTITLE15=Pappa Bear feat. Van der Toorn - Cherish
TTITLE16=A.K.-S.W.I.F.T. - In the game
TTITLE17=The Notorius B.I.G. feat. Mase and Puff Daddy - Been around the world
EXTD=
EXTT0=
EXTT1=
EXTT2=
EXTT3=
EXTT4=
EXTT5=
EXTT6=
EXTT7=
EXTT8=
EXTT9=
EXTT10=
EXTT11=
EXTT12=
EXTT13=
EXTT14=
EXTT15=
EXTT16=
EXTT17=
PLAYORDER=
